<svg xmlns="http://www.w3.org/2000/svg" viewBox="0 0 900 900">
  <defs>
    <linearGradient id="g" x1="0" y1="0" x2="0" y2="1">
      <stop offset="0%" stop-color="#0b1f33"/>
      <stop offset="100%" stop-color="#143a5c"/>
    </linearGradient>
  </defs>
  <rect width="900" height="900" fill="url(#g)"/>
  <rect y="610" width="900" height="290" fill="#08131f"/>
  <g fill="#d8e9ff" opacity="0.22">
    <rect x="110" y="310" width="64" height="300"/>
    <rect x="195" y="250" width="104" height="360"/>
    <rect x="325" y="170" width="78" height="440"/>
    <rect x="430" y="210" width="116" height="400"/>
    <rect x="575" y="290" width="66" height="320"/>
    <rect x="660" y="220" width="92" height="390"/>
  </g>
  <g fill="#7dd3fc">
    <rect x="95" y="715" width="710" height="8" opacity="0.9"/>
    <rect x="120" y="285" width="18" height="18"/>
    <rect x="155" y="285" width="18" height="18"/>
    <rect x="220" y="225" width="18" height="18"/>
    <rect x="255" y="225" width="18" height="18"/>
    <rect x="345" y="145" width="18" height="18"/>
    <rect x="378" y="145" width="18" height="18"/>
    <rect x="455" y="185" width="18" height="18"/>
    <rect x="490" y="185" width="18" height="18"/>
    <rect x="592" y="265" width="18" height="18"/>
    <rect x="685" y="195" width="18" height="18"/>
    <rect x="720" y="195" width="18" height="18"/>
  </g>
  <text x="450" y="820" fill="#ffffff" font-size="72" font-family="Arial, sans-serif" text-anchor="middle" font-weight="700">NYC Skyline</text>
</svg>
